<svg width="28" height="28" viewBox="0 0 28 28" fill="none" xmlns="http://www.w3.org/2000/svg">
<path d="M13.994 25.6484C14.1815 25.6484 14.4745 25.5784 14.779 25.4259C21.33 21.7344 23.5925 20.1874 23.5925 15.9799V7.14444C23.5925 5.93744 23.065 5.55094 22.0925 5.14044C20.721 4.57794 16.3265 2.99594 14.9675 2.51544C14.651 2.42194 14.3345 2.35144 13.9945 2.35144C13.6665 2.35144 13.35 2.42144 13.0335 2.51544C11.6745 3.00794 7.28001 4.58994 5.90851 5.14044C4.93601 5.53894 4.40851 5.93744 4.40851 7.14444V15.9804C4.40851 20.1874 6.68201 21.7224 13.221 25.4254C13.526 25.5779 13.8065 25.6484 13.994 25.6484ZM12.4005 19.6949C12.002 19.6949 11.6855 19.5189 11.3575 19.1204L7.98251 14.9484C7.80651 14.7259 7.70101 14.4449 7.70101 14.1869C7.70101 13.6359 8.12301 13.2144 8.65051 13.2144C8.97851 13.2144 9.27151 13.3434 9.55301 13.7064L12.3535 17.3274L17.791 8.59744C18.0255 8.23394 18.33 8.05794 18.635 8.05794C19.15 8.05794 19.6425 8.39794 19.6425 8.96044C19.6425 9.21794 19.502 9.49944 19.3495 9.73394L13.385 19.1209C13.139 19.5079 12.7995 19.6954 12.401 19.6954" fill="#3674A7"/>
</svg>
