<svg width="16" height="16" viewBox="0 0 16 16" fill="none" xmlns="http://www.w3.org/2000/svg">
<path d="M11 1.00001C10.3973 0.999874 9.80235 1.13595 9.2596 1.39806C8.71686 1.66018 8.24037 2.04156 7.86573 2.5137C7.49109 2.98584 7.22799 3.53655 7.0961 4.12466C6.9642 4.71277 6.96691 5.32309 7.10403 5.91001L2.05303 11.145C1.6958 11.5239 1.50169 12.028 1.51251 12.5486C1.52333 13.0693 1.73822 13.5648 2.11088 13.9286C2.48354 14.2923 2.98416 14.4951 3.50491 14.4934C4.02566 14.4916 4.52488 14.2853 4.89503 13.919L9.90203 8.84701C10.5409 9.02887 11.2151 9.04883 11.8636 8.9051C12.5122 8.76136 13.1147 8.45845 13.617 8.02367C14.1192 7.5889 14.5053 7.03594 14.7405 6.41468C14.9757 5.79341 15.0525 5.12338 14.964 4.46501C14.9517 4.37244 14.9138 4.28517 14.8545 4.21307C14.7951 4.14096 14.7168 4.08692 14.6283 4.05704C14.5399 4.02717 14.4448 4.02267 14.3539 4.04405C14.263 4.06543 14.1799 4.11183 14.114 4.17801L12 6.29301L9.70703 4.00001L11.822 1.88501C11.8882 1.81913 11.9346 1.73604 11.956 1.64514C11.9774 1.55425 11.9729 1.45918 11.943 1.37071C11.9131 1.28224 11.8591 1.20391 11.787 1.14458C11.7149 1.08524 11.6276 1.04729 11.535 1.03501C11.3573 1.01134 11.1783 0.999652 10.999 1.00001" fill="#3674A7"/>
</svg>
