<svg width="16" height="16" viewBox="0 0 16 16" fill="none" xmlns="http://www.w3.org/2000/svg">
<path d="M11.0605 4.93948C10.7792 4.65828 10.3977 4.50031 10 4.50031C9.60225 4.50031 9.22079 4.65828 8.9395 4.93948L8.707 5.17148L9.414 5.87848L9.6465 5.64648C9.7408 5.55541 9.8671 5.50501 9.9982 5.50615C10.1293 5.50729 10.2547 5.55987 10.3474 5.65258C10.4401 5.74528 10.4927 5.87069 10.4938 6.00178C10.495 6.13288 10.4446 6.25918 10.3535 6.35348L8.707 7.99998L9.414 8.70698L11.0605 7.06048C11.3417 6.77919 11.4997 6.39773 11.4997 5.99998C11.4997 5.60224 11.3417 5.22078 11.0605 4.93948ZM6.3535 10.3535C6.2592 10.4446 6.1329 10.495 6.0018 10.4938C5.8707 10.4927 5.74529 10.4401 5.65259 10.3474C5.55989 10.2547 5.5073 10.1293 5.50616 9.99819C5.50502 9.86709 5.55542 9.74079 5.6465 9.64648L7.293 7.99998L6.586 7.29298L4.9395 8.93948C4.79623 9.07785 4.68196 9.24337 4.60335 9.42638C4.52473 9.60938 4.48335 9.80621 4.48162 10.0054C4.47989 10.2046 4.51785 10.4021 4.59327 10.5864C4.66869 10.7708 4.78007 10.9382 4.92091 11.0791C5.06175 11.2199 5.22922 11.3313 5.41357 11.4067C5.59791 11.4821 5.79543 11.5201 5.9946 11.5184C6.19377 11.5166 6.3906 11.4753 6.57361 11.3966C6.75661 11.318 6.92213 11.2038 7.0605 11.0605L7.293 10.8285L6.586 10.1215L6.3535 10.3535ZM7.0605 4.93998C6.77645 4.67337 6.39981 4.52772 6.01029 4.53386C5.62076 4.54001 5.2489 4.69745 4.9734 4.97289C4.6979 5.24833 4.54036 5.62015 4.53413 6.00968C4.52789 6.3992 4.67345 6.77587 4.94 7.05998L5.172 7.29248L5.879 6.58548L5.647 6.35298C5.55592 6.25868 5.50552 6.13238 5.50666 6.00128C5.5078 5.87019 5.56039 5.74478 5.65309 5.65208C5.74579 5.55937 5.8712 5.50679 6.0023 5.50565C6.1334 5.50451 6.2597 5.55491 6.354 5.64598L8 7.29298L8.707 6.58598L7.0605 4.93998Z" fill="#3674A7"/>
<path d="M11.0605 8.93947L10.8285 8.70697L10.1215 9.41397L10.3535 9.64647C10.4445 9.74077 10.4949 9.86707 10.4938 9.99817C10.4927 10.1293 10.4401 10.2547 10.3474 10.3474C10.2547 10.4401 10.1293 10.4927 9.99817 10.4938C9.86707 10.4949 9.74077 10.4445 9.64647 10.3535L7.99997 8.70697L7.29297 9.41397L8.93947 11.0605C9.22237 11.3337 9.60128 11.4849 9.99457 11.4815C10.3879 11.4781 10.7641 11.3203 11.0422 11.0422C11.3203 10.7641 11.4781 10.3879 11.4815 9.99457C11.4849 9.60128 11.3337 9.22237 11.0605 8.93947Z" fill="#3674A7"/>
<path d="M8 15.5C7.91146 15.5001 7.8245 15.4766 7.748 15.432L1.748 11.932C1.67251 11.888 1.60989 11.8249 1.56637 11.7491C1.52286 11.6733 1.49997 11.5874 1.5 11.5V4.50003C1.49997 4.41262 1.52286 4.32674 1.56637 4.25094C1.60989 4.17515 1.67251 4.11208 1.748 4.06803L7.748 0.568026C7.82448 0.523396 7.91145 0.499878 8 0.499878C8.08855 0.499878 8.17552 0.523396 8.252 0.568026L14.252 4.06803L13.748 4.93203L8 1.57903L2.5 4.78703V11.213L8 14.4215L13.5 11.213V7.50003H14.5V11.5C14.5 11.5874 14.4771 11.6733 14.4336 11.7491C14.3901 11.8249 14.3275 11.888 14.252 11.932L8.252 15.432C8.1755 15.4766 8.08854 15.5001 8 15.5Z" fill="#3674A7"/>
</svg>
