<svg width="148" height="148" viewBox="0 0 148 148" fill="none" xmlns="http://www.w3.org/2000/svg">
<path d="M57.0417 135.667L54.575 115.933C53.2389 115.419 51.9809 114.803 50.801 114.083C49.6211 113.364 48.4638 112.593 47.3292 111.771L28.9833 119.479L12.025 90.1875L27.9042 78.1625C27.8014 77.443 27.75 76.7503 27.75 76.0843V71.9218C27.75 71.2517 27.8014 70.5569 27.9042 69.8375L12.025 57.8125L28.9833 28.5208L47.3292 36.2291C48.4597 35.4069 49.6417 34.6361 50.875 33.9166C52.1083 33.1972 53.3417 32.5805 54.575 32.0666L57.0417 12.3333H90.9583L93.425 32.0666C94.7611 32.5805 96.0212 33.1972 97.2052 33.9166C98.3892 34.6361 99.5444 35.4069 100.671 36.2291L119.017 28.5208L135.975 57.8125L120.096 69.8375C120.199 70.5569 120.25 71.2517 120.25 71.9218V76.0781C120.25 76.7483 120.147 77.443 119.942 78.1625L135.821 90.1875L118.862 119.479L100.671 111.771C99.5403 112.593 98.3583 113.364 97.125 114.083C95.8917 114.803 94.6583 115.419 93.425 115.933L90.9583 135.667H57.0417ZM67.8333 123.333H80.0125L82.1708 106.992C85.3569 106.169 88.3128 104.963 91.0385 103.372C93.7642 101.781 96.2555 99.8527 98.5125 97.5875L113.775 103.908L119.787 93.425L106.529 83.4041C107.043 81.9653 107.403 80.4503 107.608 78.8593C107.814 77.2683 107.917 75.6485 107.917 74C107.917 72.3514 107.814 70.7337 107.608 69.1468C107.403 67.5599 107.043 66.0429 106.529 64.5958L119.787 54.575L113.775 44.0916L98.5125 50.5666C96.2514 48.2028 93.7601 46.2253 91.0385 44.6343C88.3169 43.0433 85.3611 41.8346 82.1708 41.0083L80.1667 24.6666H67.9875L65.8292 41.0083C62.6431 41.8305 59.6892 43.0392 56.9677 44.6343C54.2461 46.2294 51.7527 48.1555 49.4875 50.4125L34.225 44.0916L28.2125 54.575L41.4708 64.4416C40.9569 65.9833 40.5972 67.525 40.3917 69.0666C40.1861 70.6083 40.0833 72.2528 40.0833 74C40.0833 75.6444 40.1861 77.2375 40.3917 78.7791C40.5972 80.3208 40.9569 81.8625 41.4708 83.4041L28.2125 93.425L34.225 103.908L49.4875 97.4333C51.7486 99.7972 54.242 101.777 56.9677 103.372C59.6933 104.967 62.6472 106.174 65.8292 106.992L67.8333 123.333ZM74.3083 95.5833C80.2694 95.5833 85.3569 93.4764 89.5708 89.2625C93.7847 85.0486 95.8917 79.9611 95.8917 74C95.8917 68.0389 93.7847 62.9514 89.5708 58.7375C85.3569 54.5236 80.2694 52.4166 74.3083 52.4166C68.2444 52.4166 63.1302 54.5236 58.9657 58.7375C54.8011 62.9514 52.7209 68.0389 52.725 74C52.7291 79.9611 54.8114 85.0486 58.9718 89.2625C63.1323 93.4764 68.2444 95.5833 74.3083 95.5833Z" fill="#3674A7"/>
</svg>
