<svg width="20" height="17" viewBox="0 0 20 17" fill="none" xmlns="http://www.w3.org/2000/svg">
<path d="M6.01 10.37L1.006 8.868C1.036 11.982 1.218 14.851 2.318 15.828C3.636 17 5.758 17 10 17C14.242 17 16.364 17 17.682 15.828C18.782 14.851 18.964 11.982 18.994 8.868L13.989 10.369C13.9513 10.7314 13.8154 11.0767 13.5958 11.3675C13.3762 11.6583 13.0813 11.8836 12.743 12.019L12.043 12.299C10.7315 12.8237 9.26847 12.8237 7.957 12.299L7.257 12.019C6.9187 11.8836 6.62383 11.6583 6.40424 11.3675C6.18464 11.0767 6.04867 10.7314 6.011 10.369M5.609 0H14.391C16.841 0 18.066 -1.19209e-07 18.893 0.673C19.053 0.803 19.1977 0.947667 19.327 1.107C20 1.934 20 3.159 20 5.609C20 6.231 20 6.541 19.85 6.784C19.8205 6.83138 19.787 6.8762 19.75 6.918C19.56 7.132 19.263 7.221 18.668 7.4L14 8.8V8C14 7.46957 13.7893 6.96086 13.4142 6.58579C13.0391 6.21071 12.5304 6 12 6H8C7.46957 6 6.96086 6.21071 6.58579 6.58579C6.21071 6.96086 6 7.46957 6 8V8.8L1.332 7.4C0.737 7.221 0.439 7.132 0.25 6.918C0.212984 6.8762 0.179534 6.83138 0.15 6.784C8.9407e-08 6.541 0 6.231 0 5.609C0 3.159 1.19209e-07 1.934 0.673 1.107C0.803 0.947 0.947667 0.802333 1.107 0.673C1.934 -1.19209e-07 3.159 0 5.609 0Z" fill="#3674A7"/>
</svg>
